<svg xmlns="http://www.w3.org/2000/svg" viewBox="0 0 1920 1080"><defs><style>.cls-1{fill:#a20071;opacity:0.54;}.cls-2{fill:#8cc63f;opacity:0.85;}.cls-3{fill:#fff;}</style></defs><title>Artboard 1</title><g id="Layer_2" data-name="Layer 2"><path class="cls-1" d="M440.86,783.72c46,115.18,215,143,231.28,145.42,145.8,22.05,264.1-55,329.52-99,254.75-171.27,303.32-441.87,492.72-455.6,27.25-2,49.23,2,51.83-6.19,9.38-29.46-240-201.24-520.58-166.3-108,13.44-184.12,52.94-224.31,74.26C603.59,381.16,375,618.84,440.86,783.72Z"/><path class="cls-2" d="M880,263.8C767.79,114.46,638.78,115,577.39,169.43c-55.5,49.21-83.89,200.05-61.54,317C559.14,713,727.52,931.7,957.6,825.43c138.71-64.07,204.92-69,309.46,7.32,109.31,79.86,121.13,177.14,162.21,160.34,74.5-30.47,123.42-504,2.3-623-104.73-102.93-209,302.48-448.66,40.31C916.76,338,955.31,364.13,880,263.8Z"/></g><g id="Layer_1" data-name="Layer 1"><path class="cls-3" d="M1017.5,472.5c-13.35-23.38-27.23-46.38-42.51-68.26-7.57-11-15.57-21.63-23.88-31.94a380.85,380.85,0,0,0-26.33-29.43,257,257,0,0,0-29.3-25.51A169.88,169.88,0,0,0,863,298.08a121.08,121.08,0,0,0-35-9.8,104.72,104.72,0,0,0-35.4,2.08,122.78,122.78,0,0,0-33.31,13.26,177.06,177.06,0,0,0-29.77,21.66,229,229,0,0,0-25.76,27.29,268.75,268.75,0,0,0-21.64,30.93c-3.22,5.38-6.25,10.87-9,16.41a170.62,170.62,0,0,0-7.24,16.65l-.73,2.05c-.24.69-.48,1.49-.73,2.22-.49,1.5-1,3-1.41,4.52-.93,3-1.8,6.07-2.64,9.13q-2.53,9.18-4.59,18.53a493.88,493.88,0,0,0-10.46,76.22,523.06,523.06,0,0,0,.85,77.08c1.12,12.76,2.79,25.41,5.1,37.84a252.14,252.14,0,0,0,9.33,36.14c3.8,11.27,9.74,22.83,16.05,33.63a238,238,0,0,0,21.61,30.83,193.07,193.07,0,0,0,26.4,26.39,166.53,166.53,0,0,0,15,11,160.78,160.78,0,0,0,16.06,9.23c22.11,11.08,47,16.48,72.35,16.42a213.81,213.81,0,0,0,38.17-3.7,275.56,275.56,0,0,0,37.72-10,368,368,0,0,0,36.67-14.71c12-5.54,23.83-11.69,35.44-18.24a743.91,743.91,0,0,0,67.5-43.63,588.06,588.06,0,0,1-62.72,51.18q-16.65,11.72-34.39,22a367.43,367.43,0,0,1-36.73,18.46,279.36,279.36,0,0,1-39.26,13.65,218.79,218.79,0,0,1-41.59,7A187.56,187.56,0,0,1,786,827.93a177.27,177.27,0,0,1-41.62-12.08,185.45,185.45,0,0,1-37.62-21.66,223.09,223.09,0,0,1-32-29,258.18,258.18,0,0,1-26.08-34c-3.87-6-7.51-12.16-10.91-18.4l-2.47-4.62c-.86-1.61-1.81-3.27-2.63-4.92-1.74-3.3-3.25-6.66-4.74-10q-4.38-10.1-7.75-20.36c-2.28-6.83-4.24-13.72-5.93-20.64s-3.17-13.85-4.43-20.81-2.3-13.92-3.17-20.9a452.51,452.51,0,0,1-2.27-83.88,431.54,431.54,0,0,1,13.3-83c1.84-6.81,3.85-13.59,6.08-20.33,1.13-3.36,2.29-6.71,3.53-10.05q.91-2.5,1.89-5l1-2.52c.34-.89.69-1.79,1.05-2.66a208.06,208.06,0,0,1,9.5-20c3.45-6.38,7.13-12.54,11-18.55a277.37,277.37,0,0,1,56.65-64.08,196.45,196.45,0,0,1,36.49-23.92A152.69,152.69,0,0,1,787,262.42a129,129,0,0,1,44.77.13,140.53,140.53,0,0,1,41.45,14.55,191.76,191.76,0,0,1,35.06,24.33,273.6,273.6,0,0,1,29.15,29.86c17.75,21.16,32.58,44.17,45.7,67.89q9.78,17.83,18.34,36.19T1017.5,472.5Z"/><path class="cls-3" d="M706,609q1.79-50.37,6.21-100.64c3-33.5,6.82-67,12.55-100.37,2.9-16.7,6.23-33.38,10.79-50a248.68,248.68,0,0,1,8.07-25c1.65-4.16,3.46-8.31,5.6-12.48a72.46,72.46,0,0,1,8-12.48c.86-1,1.71-2.06,2.74-3.08a36.2,36.2,0,0,1,3.23-3,30.64,30.64,0,0,1,8.75-5.09,25.29,25.29,0,0,1,11.52-1.29,28.13,28.13,0,0,1,10.13,3.33c.75.38,1.36.8,2,1.22l1,.63c.31.21.6.43.9.65l1.76,1.33,1.58,1.37.79.69.72.7,1.43,1.4c.9.95,1.75,1.9,2.6,2.85a98.28,98.28,0,0,1,8.46,11.63,204.76,204.76,0,0,1,12.52,23.7c3.64,8,6.83,16,9.86,24,12,32.19,21.09,64.83,29.53,97.57,4.16,16.37,8,32.8,11.75,49.24q2.79,12.33,5.46,24.68l5.15,24.73c13.54,66,24.81,132.24,34.83,198.67l8.38,55.48L902,772.74q-11.72-18-23.26-36.16t-23.13-36.25Q832.49,664,809.75,627.54,798.4,609.29,787.1,591t-22.46-36.69q-11.16-18.4-22.22-36.86c-3.7-6.15-7.31-12.35-11-18.52s-7.3-12.36-10.89-18.57q6.59,8.52,13,17.13c4.32,5.73,8.68,11.43,13,17.19q12.9,17.22,25.64,34.56t25.4,34.72q12.67,17.37,25.21,34.85,25.11,34.92,49.91,70c8.3,11.69,16.51,23.44,24.73,35.18s16.45,23.47,24.6,35.25l-22,8.74c-6.15-32.92-12.25-65.83-18.64-98.67q-4.7-24.65-9.63-49.24c-3.31-16.38-6.55-32.77-10-49.12l-5.22-24.49L851.27,522q-5.4-24.42-11.33-48.67c-3.91-16.18-8-32.27-12.49-48.22s-9.14-31.79-14.54-47.22c-2.68-7.72-5.57-15.32-8.64-22.73A185.23,185.23,0,0,0,794,334.07a75.2,75.2,0,0,0-6-8.91,26.36,26.36,0,0,0-6-5.7,6.05,6.05,0,0,0-1.67-.78,1.73,1.73,0,0,0-.87,0,7.64,7.64,0,0,0-2.11,1.13A14.56,14.56,0,0,0,776,321a18.67,18.67,0,0,0-1.51,1.55,49.83,49.83,0,0,0-5.86,8.47c-1.84,3.22-3.53,6.69-5.12,10.26a232.08,232.08,0,0,0-8.53,22.5c-2.54,7.74-4.81,15.64-7,23.6s-4.17,16-6.07,24.09q-5.65,24.26-10.4,48.88-2.41,12.29-4.67,24.63l-4.41,24.71C716.69,542.68,711.38,575.81,706,609Z"/><path class="cls-3" d="M1033.67,522.49a79.41,79.41,0,0,0-22.47-26.87,63.49,63.49,0,0,0-29.62-12.34,46.67,46.67,0,0,0-14.78.38,39.45,39.45,0,0,0-12.87,4.92A49.8,49.8,0,0,0,935.48,509,51.89,51.89,0,0,0,931,521.9a33.89,33.89,0,0,0-.41,12,23.14,23.14,0,0,0,.54,2.44l.37,1.11.51,1.36a28.46,28.46,0,0,0,2.49,4.86,28,28,0,0,0,3.42,4.3,42.26,42.26,0,0,0,4.59,4.19c7,5.57,17.1,10.93,27.59,16.37l16.12,8.39c5.44,2.89,10.91,5.88,16.36,9s10.85,6.36,16.21,9.69c2.66,1.71,5.33,3.4,8,5.16,2.42,1.57,5.84,3.87,8.76,6.2,11.84,9.45,21.74,21.64,27.65,36.49a70.92,70.92,0,0,1,5.1,23.82,63.63,63.63,0,0,1-4,24.67c-.34,1-.76,1.94-1.16,2.9s-.83,1.89-1.3,2.81l-.69,1.38-.35.69-.43.77c-.6,1-1.16,2.07-1.82,3a50.67,50.67,0,0,1-8.86,10.23,63.93,63.93,0,0,1-20.85,12,88.47,88.47,0,0,1-21.27,4.61,100,100,0,0,1-21-.26,90.41,90.41,0,0,1-10.37-1.82l-2.58-.66-2.54-.79-2.54-.8-1.25-.41c-.42-.16-.82-.34-1.23-.5l-4.87-2c-1.58-.75-3.13-1.58-4.67-2.37a50.09,50.09,0,0,1-4.49-2.62,42.78,42.78,0,0,1-4.3-2.86c-1.37-1-2.75-2-4.08-3.1l-3.82-3.36-1-.84L938,707l-1.76-1.8-1.75-1.79c-.56-.62-1.08-1.28-1.62-1.92a84.44,84.44,0,0,1-11-16.31,87,87,0,0,1-7-17.81l-1.12-4.59c-.34-1.53-.57-3.08-.83-4.62a90.28,90.28,0,0,1-1-9.23l2,4.17c.33.69.62,1.39,1,2.06l1.08,2c.74,1.33,1.38,2.67,2.13,4l2.34,3.81c.73,1.29,1.64,2.48,2.46,3.69s1.62,2.44,2.58,3.56,1.81,2.28,2.7,3.42,1.92,2.16,2.87,3.23a81.75,81.75,0,0,0,12.57,11.27,70.19,70.19,0,0,0,14.05,8.13c1.19.59,2.45,1,3.68,1.49a35.17,35.17,0,0,0,3.7,1.28c1.26.35,2.49.74,3.74,1.06l3.78.75c.31.07.62.14.93.19l1,.11,1.89.23,1.87.24,1.9.14c2.53.13,5.11.13,7.69,0,10.29-.5,20.73-3,28.94-7.15a32.75,32.75,0,0,0,9.73-7.23,16.94,16.94,0,0,0,2.56-3.83c.18-.3.25-.63.4-.94l.1-.22.12-.34.25-.69c.18-.46.32-.92.46-1.38a14.15,14.15,0,0,0,.4-1.37,29.55,29.55,0,0,0,.73-11.12,37,37,0,0,0-3.36-11.33,54.43,54.43,0,0,0-16.83-20c-1.87-1.38-3.48-2.45-6.17-4.13-2.43-1.56-4.91-3.06-7.38-4.58q-7.41-4.53-15-8.86c-10.15-5.82-20.56-11.36-31.36-17.35-5.39-3-10.93-6.12-16.55-9.7a126.51,126.51,0,0,1-17.12-12.75,76.4,76.4,0,0,1-8.25-8.63,64.51,64.51,0,0,1-7-10.55,60.56,60.56,0,0,1-4.75-11.77l-.81-3c-.25-1.05-.47-2.2-.69-3.3a60.07,60.07,0,0,1-.76-6.55,63.16,63.16,0,0,1,.57-12.46A68,68,0,0,1,898.73,513a80.23,80.23,0,0,1,24.87-36.86A69.39,69.39,0,0,1,943,464.75a59.21,59.21,0,0,1,10.93-3.09,55.86,55.86,0,0,1,11.19-1,66.21,66.21,0,0,1,21.25,3.66A72.46,72.46,0,0,1,1019,487.75,69.9,69.9,0,0,1,1033.67,522.49Z"/></g></svg>