<svg id="Layer_1" data-name="Layer 1" xmlns="http://www.w3.org/2000/svg" viewBox="0 0 617 264"><defs><style>.cls-1{fill:none;stroke:#000;stroke-miterlimit:10;}</style></defs><title>Artboard 1</title><path class="cls-1" d="M61.45,11.87C25.05,39.29,29.92,86.41,29.92,86.41s8.63,54.11,59.74,17.78S80-2.13,61.45,11.87Z"/><path class="cls-1" d="M156.69,58.79c-15.44,3.11-25.23,10.63-25.28,17.95,0,4.23,3.22,7.93,6,9.67C151.4,95,179.3,70.78,177,62.72,176.2,59.87,171.26,57.83,156.69,58.79Z"/><path class="cls-1" d="M223.34,128.24c-3.28-7.88-10-12.35-16-11.69a12.11,12.11,0,0,0-7.7,4.11c-6.47,8.2,14.85,20.67,21.39,18.7C223.36,138.66,224.81,135.85,223.34,128.24Z"/><path class="cls-1" d="M252.39,80c21.55-29.86,7.48-58.25,7.48-58.25s-18.44-31.57-49.17,9S241.39,95.26,252.39,80Z"/><path class="cls-1" d="M403.5,34.16c-24.25-28-65.49-24-65.49-24S290.66,17,322.79,56.32,415.87,48.45,403.5,34.16Z"/><path class="cls-1" d="M363,107.91C360.16,96,353.5,88.47,347.1,88.46a11,11,0,0,0-8.44,4.7c-7.48,10.81,13.95,32.27,21,30.46C362.15,123,363.9,119.16,363,107.91Z"/><path class="cls-1" d="M302.54,159.67c6.88-2.57,10.76-7.73,10.14-12.39a9.11,9.11,0,0,0-3.65-5.93c-7.22-5-18,11.55-16.25,16.6C293.41,159.73,295.88,160.84,302.54,159.67Z"/><path class="cls-1" d="M345,181.91c26.29,16.52,51.07,5.54,51.07,5.54s27.54-14.37-8.15-37.94S331.54,173.48,345,181.91Z"/><path class="cls-1" d="M146.07,50.84c-36.4,27.42-31.52,74.54-31.52,74.54s8.63,54.11,59.73,17.78S164.66,36.84,146.07,50.84Z"/><path class="cls-1" d="M241.32,97.76c-15.44,3.11-25.23,10.64-25.28,17.95,0,4.23,3.22,7.93,6,9.67,14,8.63,41.86-15.63,39.56-23.69C260.82,98.84,255.88,96.8,241.32,97.76Z"/><path class="cls-1" d="M308,167.21c-3.29-7.88-10-12.35-16-11.68a12,12,0,0,0-7.69,4.1c-6.48,8.2,14.84,20.68,21.38,18.7C308,177.63,309.44,174.83,308,167.21Z"/><path class="cls-1" d="M86,127.46c5.75-1.81,9-5.43,8.47-8.7a6.41,6.41,0,0,0-3-4.17c-6-3.48-15.05,8.11-13.57,11.66C78.32,127.5,80.38,128.28,86,127.46Z"/><path class="cls-1" d="M103.75,141.07c-2.74-5.53-8.31-8.67-13.35-8.2A10.73,10.73,0,0,0,84,135.75c-5.4,5.76,12.4,14.52,17.87,13.13C103.77,148.39,105,146.42,103.75,141.07Z"/><path class="cls-1" d="M24.89,137.7c-3.29-7.88-10-12.35-16-11.69a12.08,12.08,0,0,0-7.7,4.11c-6.47,8.2,14.84,20.67,21.38,18.7C24.91,148.12,26.36,145.31,24.89,137.7Z"/><path class="cls-1" d="M337,119c21.54-29.86,7.48-58.25,7.48-58.25s-18.45-31.57-49.17,9S326,134.23,337,119Z"/><path class="cls-1" d="M488.12,73.13c-24.24-28-65.49-24-65.49-24S375.29,56,407.42,95.3,500.5,87.43,488.12,73.13Z"/><path class="cls-1" d="M447.6,146.89c-2.82-11.92-9.47-19.45-15.88-19.46a10.94,10.94,0,0,0-8.43,4.7c-7.48,10.81,13.94,32.27,21,30.46C446.77,162,448.53,158.13,447.6,146.89Z"/><path class="cls-1" d="M387.17,198.65c6.88-2.57,10.75-7.74,10.13-12.4a9.11,9.11,0,0,0-3.64-5.92c-7.22-5-18,11.55-16.25,16.59C378,198.7,380.5,199.81,387.17,198.65Z"/><path class="cls-1" d="M429.58,220.89c26.29,16.51,51.07,5.53,51.07,5.53s27.55-14.37-8.15-37.94S416.16,212.45,429.58,220.89Z"/><path class="cls-1" d="M507.7,26.59c-24.24-28-65.49-24-65.49-24S394.87,9.43,427,48.76,520.08,40.89,507.7,26.59Z"/><path class="cls-1" d="M467.18,100.35c-2.82-11.92-9.47-19.45-15.88-19.46a10.94,10.94,0,0,0-8.43,4.7c-7.48,10.81,13.94,32.27,21,30.46C466.35,115.41,468.11,111.59,467.18,100.35Z"/><path class="cls-1" d="M406.74,152.11c6.89-2.57,10.76-7.74,10.14-12.4a9.14,9.14,0,0,0-3.64-5.92c-7.22-5-18,11.55-16.25,16.59C397.61,152.16,400.08,153.27,406.74,152.11Z"/><path class="cls-1" d="M449.16,174.35c26.29,16.51,51.07,5.53,51.07,5.53s27.55-14.37-8.15-37.94S435.74,165.91,449.16,174.35Z"/><path class="cls-1" d="M412.17,159.64c-3.29-7.88-9.95-12.35-16-11.68a12,12,0,0,0-7.7,4.1c-6.47,8.2,14.84,20.68,21.38,18.7C412.19,170.06,413.64,167.26,412.17,159.64Z"/><path class="cls-1" d="M441.22,111.42c21.55-29.86,7.48-58.25,7.48-58.25s-18.44-31.57-49.17,9S430.22,126.67,441.22,111.42Z"/><path class="cls-1" d="M592.33,65.56c-24.25-28-65.49-24-65.49-24s-47.35,6.89-15.22,46.21S604.7,79.86,592.33,65.56Z"/><path class="cls-1" d="M551.8,139.32c-2.82-11.92-9.47-19.45-15.87-19.45-3.71,0-6.93,2.52-8.44,4.7-7.48,10.81,14,32.26,21,30.45C551,154.38,552.73,150.56,551.8,139.32Z"/><path class="cls-1" d="M491.37,191.08c6.88-2.57,10.76-7.74,10.14-12.39a9.11,9.11,0,0,0-3.65-5.93c-7.22-5-18,11.55-16.25,16.59C482.24,191.14,484.7,192.25,491.37,191.08Z"/><path class="cls-1" d="M533.79,213.32c26.29,16.52,51.07,5.54,51.07,5.54s27.54-14.38-8.15-37.94S520.37,204.89,533.79,213.32Z"/></svg>