<?xml version="1.0" encoding="utf-8"?>
<!-- Generator: Adobe Illustrator 22.1.0, SVG Export Plug-In . SVG Version: 6.00 Build 0)  -->
<svg version="1.1" id="Layer_1" xmlns="http://www.w3.org/2000/svg" xmlns:xlink="http://www.w3.org/1999/xlink" x="0px" y="0px"
	 viewBox="0 0 617 264" style="enable-background:new 0 0 617 264;" xml:space="preserve">
<style type="text/css">
	.st0{fill:none;stroke:#000000;stroke-miterlimit:10;}
</style>
<path class="st0" d="M61.4,11.9C25,39.3,29.9,86.4,29.9,86.4s8.6,54.1,59.7,17.8S80-2.1,61.4,11.9z"/>
<path class="st0" d="M156.7,58.8c-15.4,3.1-25.2,10.6-25.3,17.9c0,4.2,3.2,7.9,6,9.7c14,8.6,41.9-15.6,39.6-23.7
	C176.2,59.9,171.3,57.8,156.7,58.8z"/>
<path class="st0" d="M223.3,128.2c-3.3-7.9-10-12.3-16-11.7c-3.5,0.4-6.4,2.5-7.7,4.1c-6.5,8.2,14.8,20.7,21.4,18.7
	C223.4,138.7,224.8,135.9,223.3,128.2z"/>
<path class="st0" d="M252.4,80c21.5-29.9,7.5-58.2,7.5-58.2s-18.4-31.6-49.2,9S241.4,95.3,252.4,80z"/>
<path class="st0" d="M403.5,34.2c-24.2-28-65.5-24-65.5-24s-47.3,6.9-15.2,46.2S415.9,48.5,403.5,34.2z"/>
<path class="st0" d="M363,107.9c-2.8-11.9-9.5-19.4-15.9-19.5c-3.7,0-6.9,2.5-8.4,4.7c-7.5,10.8,13.9,32.3,21,30.5
	C362.1,123,363.9,119.2,363,107.9z"/>
<path class="st0" d="M302.5,159.7c6.9-2.6,10.8-7.7,10.1-12.4c-0.4-2.7-2.2-4.9-3.6-5.9c-7.2-5-18,11.6-16.3,16.6
	C293.4,159.7,295.9,160.8,302.5,159.7z"/>
<path class="st0" d="M345,181.9c26.3,16.5,51.1,5.5,51.1,5.5s27.5-14.4-8.2-37.9S331.5,173.5,345,181.9z"/>
<path class="st0" d="M146.1,50.8c-36.4,27.4-31.5,74.5-31.5,74.5s8.6,54.1,59.7,17.8S164.7,36.8,146.1,50.8z"/>
<path class="st0" d="M241.3,97.8c-15.4,3.1-25.2,10.6-25.3,17.9c0,4.2,3.2,7.9,6,9.7c14,8.6,41.9-15.6,39.6-23.7
	C260.8,98.8,255.9,96.8,241.3,97.8z"/>
<path class="st0" d="M308,167.2c-3.3-7.9-10-12.3-16-11.7c-3.5,0.4-6.4,2.5-7.7,4.1c-6.5,8.2,14.8,20.7,21.4,18.7
	C308,177.6,309.4,174.8,308,167.2z"/>
<path class="st0" d="M85.9,127.5c5.7-1.8,9-5.4,8.5-8.7c-0.3-1.9-1.8-3.5-3-4.2c-6-3.5-15.1,8.1-13.6,11.7
	C78.3,127.5,80.4,128.3,85.9,127.5z"/>
<path class="st0" d="M103.8,141.1c-2.7-5.5-8.3-8.7-13.4-8.2c-2.9,0.3-5.3,1.7-6.4,2.9c-5.4,5.8,12.4,14.5,17.9,13.1
	C103.8,148.4,105,146.4,103.8,141.1z"/>
<path class="st0" d="M24.9,137.7c-3.3-7.9-10-12.3-16-11.7c-3.5,0.4-6.4,2.5-7.7,4.1c-6.5,8.2,14.8,20.7,21.4,18.7
	C24.9,148.1,26.4,145.3,24.9,137.7z"/>
<path class="st0" d="M337,119c21.5-29.9,7.5-58.2,7.5-58.2s-18.4-31.6-49.2,9S326,134.2,337,119z"/>
<path class="st0" d="M488.1,73.1c-24.2-28-65.5-24-65.5-24s-47.3,6.9-15.2,46.2S500.5,87.4,488.1,73.1z"/>
<path class="st0" d="M447.6,146.9c-2.8-11.9-9.5-19.4-15.9-19.5c-3.7,0-6.9,2.5-8.4,4.7c-7.5,10.8,13.9,32.3,21,30.5
	C446.8,162,448.5,158.1,447.6,146.9z"/>
<path class="st0" d="M387.2,198.6c6.9-2.6,10.8-7.7,10.1-12.4c-0.4-2.7-2.2-4.9-3.6-5.9c-7.2-5-18,11.6-16.3,16.6
	C378,198.7,380.5,199.8,387.2,198.6z"/>
<path class="st0" d="M429.6,220.9c26.3,16.5,51.1,5.5,51.1,5.5s27.5-14.4-8.2-37.9S416.2,212.5,429.6,220.9z"/>
<path class="st0" d="M507.7,26.6c-24.2-28-65.5-24-65.5-24S394.9,9.4,427,48.8S520.1,40.9,507.7,26.6z"/>
<path class="st0" d="M467.2,100.3c-2.8-11.9-9.5-19.4-15.9-19.5c-3.7,0-6.9,2.5-8.4,4.7c-7.5,10.8,13.9,32.3,21,30.5
	C466.3,115.4,468.1,111.6,467.2,100.3z"/>
<path class="st0" d="M406.7,152.1c6.9-2.6,10.8-7.7,10.1-12.4c-0.4-2.7-2.2-4.9-3.6-5.9c-7.2-5-18,11.6-16.3,16.6
	C397.6,152.2,400.1,153.3,406.7,152.1z"/>
<path class="st0" d="M449.2,174.3c26.3,16.5,51.1,5.5,51.1,5.5s27.5-14.4-8.2-37.9S435.7,165.9,449.2,174.3z"/>
<path class="st0" d="M412.2,159.6c-3.3-7.9-10-12.3-16-11.7c-3.5,0.4-6.4,2.5-7.7,4.1c-6.5,8.2,14.8,20.7,21.4,18.7
	C412.2,170.1,413.6,167.3,412.2,159.6z"/>
<path class="st0" d="M441.2,111.4c21.5-29.9,7.5-58.2,7.5-58.2s-18.4-31.6-49.2,9S430.2,126.7,441.2,111.4z"/>
<path class="st0" d="M592.3,65.6c-24.2-28-65.5-24-65.5-24s-47.3,6.9-15.2,46.2S604.7,79.9,592.3,65.6z"/>
<path class="st0" d="M551.8,139.3c-2.8-11.9-9.5-19.4-15.9-19.5c-3.7,0-6.9,2.5-8.4,4.7c-7.5,10.8,13.9,32.3,21,30.5
	C551,154.4,552.7,150.6,551.8,139.3z"/>
<path class="st0" d="M491.4,191.1c6.9-2.6,10.8-7.7,10.1-12.4c-0.4-2.7-2.2-4.9-3.6-5.9c-7.2-5-18,11.6-16.3,16.6
	C482.2,191.1,484.7,192.2,491.4,191.1z"/>
<path class="st0" d="M533.8,213.3c26.3,16.5,51.1,5.5,51.1,5.5s27.5-14.4-8.2-37.9S520.4,204.9,533.8,213.3z"/>
</svg>
